<svg width="102" height="45" viewBox="0 0 102 45" fill="none" xmlns="http://www.w3.org/2000/svg">
<path d="M64.1437 9.01123L51.002 43.4645H52.986L65.3575 10.7852H80.9735V14.7068H82.8875V9.01123H64.1437Z" stroke="white" stroke-width="0.840323"/>
<path d="M68.4609 2.3584V3.98646H71.0258V41.34H72.693V3.98646L97.3587 3.71129V2.3584H68.4609Z" stroke="white" stroke-width="0.840323"/>
<path d="M51.9355 43.4412H59.9633H87.8998M101.001 28.557C101.001 22.6406 101.001 19.093 101.001 14.606V1.00488L99.7166 1.75143V28.9069M87.7928 42.0881C85.3309 42.0881 71.7872 42.0881 70.4314 42.0881" stroke="white" stroke-width="0.840323"/>
<path d="M101.001 28.5488C101.001 36.7608 95.095 43.4412 87.8359 43.4412" stroke="white" stroke-width="0.840323"/>
<path d="M99.6936 28.876C99.6936 35.7751 94.6241 42.0877 87.7891 42.0877" stroke="white" stroke-width="0.840323"/>
<path d="M64.1437 35.458L51.002 1.00477H52.986L65.3575 33.684H80.9735V29.7625H82.8875V35.458H64.1437Z" stroke="white" stroke-width="0.840323"/>
<path d="M68.4609 42.0874V40.4593H71.0258V3.10576H72.693V40.4593L97.3587 40.7345V42.0874H68.4609Z" stroke="white" stroke-width="0.840323"/>
<path d="M51.9355 1.02854H59.9633H87.8998M101.001 15.9127C101.001 21.8291 101.001 25.3767 101.001 29.8638V43.4648L99.7166 42.7183V15.5628M87.7928 2.38165C85.3309 2.38165 71.7872 2.38165 70.4314 2.38165" stroke="white" stroke-width="0.840323"/>
<path d="M101.001 15.9209C101.001 7.70893 95.095 1.02851 87.8359 1.02851" stroke="white" stroke-width="0.840323"/>
<path d="M99.6936 15.5938C99.6936 8.69467 94.6241 2.38201 87.7891 2.38201" stroke="white" stroke-width="0.840323"/>
<path d="M37.8583 9.01367L51 43.4669H49.0159L36.6445 10.7877H21.0285V14.7092H19.1144V9.01367H37.8583Z" stroke="white" stroke-width="0.840323"/>
<path d="M33.5391 2.36133V3.98939H30.9742V41.343H29.307V3.98939L4.64129 3.71422V2.36133H33.5391Z" stroke="white" stroke-width="0.840323"/>
<path d="M50.0664 43.4431H42.0387H14.1022M1.00089 28.5589C1.00089 22.6426 1.00089 19.095 1.00089 14.6079V1.00684L2.28532 1.75338V28.9089M14.2092 42.09C16.671 42.09 30.2147 42.09 31.5705 42.09" stroke="white" stroke-width="0.840323"/>
<path d="M1.00096 28.5508C1.00096 36.7627 6.90698 43.4432 14.166 43.4432" stroke="white" stroke-width="0.840323"/>
<path d="M2.30832 28.8779C2.30832 35.777 7.37782 42.0897 14.2129 42.0897" stroke="white" stroke-width="0.840323"/>
<path d="M37.8583 35.46L51 1.00672H49.0159L36.6445 33.6859H21.0285V29.7644H19.1144V35.46H37.8583Z" stroke="white" stroke-width="0.840323"/>
<path d="M33.5391 42.0894V40.4613H30.9742V3.10771H29.307V40.4613L4.64129 40.7365V42.0894H33.5391Z" stroke="white" stroke-width="0.840323"/>
<path d="M50.0664 1.03049H42.0387H14.1022M1.00089 15.9147C1.00089 21.831 1.00089 25.3787 1.00089 29.8657V43.4668L2.28532 42.7203V15.5648M14.2092 2.3836C16.671 2.3836 30.2147 2.3836 31.5705 2.3836" stroke="white" stroke-width="0.840323"/>
<path d="M1.00096 15.9229C1.00096 7.71088 6.90698 1.03046 14.166 1.03046" stroke="white" stroke-width="0.840323"/>
<path d="M2.30832 15.5957C2.30832 8.69662 7.37782 2.38396 14.2129 2.38396" stroke="white" stroke-width="0.840323"/>
</svg>
