<svg width="2613" height="3338" viewBox="0 0 2613 3338" fill="none" xmlns="http://www.w3.org/2000/svg">
<path d="M0 301C0 134.762 134.762 0 301 0H2312C2478.24 0 2613 134.762 2613 301V1111.09C2613 1227 2529 1401 2263.5 1401H2136.5C1394 1401 1267 2157.5 1267 2950.5V3037C1267 3203.24 1194.5 3338 966 3338C965.595 3338 965.19 3338 964.788 3338H301C134.762 3338 0 3134.24 0 2968C6.95163 2675.95 130.266 2366.64 226.624 2124.95C289.562 1967.09 341 1838.07 341 1761.54C341 1659.94 247.173 1591.9 157.952 1527.2C77.0838 1468.55 4.28056e-05 1412.65 0 1337V301Z" fill="#73A999"/>
</svg>
