<svg width="4167" height="228" viewBox="0 0 4167 228" fill="none" xmlns="http://www.w3.org/2000/svg">
<g clip-path="url(#clip0_51_111)">
<path d="M112.029 0H220.057L112.029 228.059H0L112.029 0Z" fill="white"/>
<path d="M4059.06 0H4167.08L4059.06 228.059H3947.03L4059.06 0Z" fill="white"/>
<path d="M536.141 0H644.169L536.141 228.059H424.111L536.141 0Z" fill="white"/>
<path d="M730.188 0H838.216L730.188 228.059H618.159L730.188 0Z" fill="white"/>
<path d="M316.082 0H424.11L316.082 228.059H204.053L316.082 0Z" fill="white"/>
<path d="M950.249 0H1058.28L950.249 228.059H838.22L950.249 0Z" fill="white"/>
<path d="M1144.3 0H1252.32L1144.3 228.059H1032.27L1144.3 0Z" fill="white"/>
<path d="M1364.36 0H1472.38L1364.36 228.059H1252.33L1364.36 0Z" fill="white"/>
<path d="M1558.41 0H1666.43L1558.41 228.059H1446.38L1558.41 0Z" fill="white"/>
<path d="M1778.46 0H1886.49L1778.46 228.059H1666.43L1778.46 0Z" fill="white"/>
<path d="M1972.51 0H2080.54L1972.51 228.059H1860.49L1972.51 0Z" fill="white"/>
<path d="M2192.57 0H2300.6L2192.57 228.059H2080.54L2192.57 0Z" fill="white"/>
<path d="M2386.62 0H2494.65L2386.62 228.059H2274.59L2386.62 0Z" fill="white"/>
<path d="M2606.68 0H2714.71L2606.68 228.059H2494.65L2606.68 0Z" fill="white"/>
<path d="M2800.73 0H2908.76L2800.73 228.059H2688.7L2800.73 0Z" fill="white"/>
<path d="M3020.79 0H3128.82L3020.79 228.059H2908.76L3020.79 0Z" fill="white"/>
<path d="M3214.84 0H3322.86L3214.84 228.059H3102.81L3214.84 0Z" fill="white"/>
<path d="M3434.9 0H3542.92L3434.9 228.059H3322.87L3434.9 0Z" fill="white"/>
<path d="M3628.94 0H3736.97L3628.94 228.059H3516.92L3628.94 0Z" fill="white"/>
<path d="M3849 0H3957.03L3849 228.059H3736.97L3849 0Z" fill="white"/>
</g>
<defs>
<clipPath id="clip0_51_111">
<rect width="4167" height="228" fill="white"/>
</clipPath>
</defs>
</svg>
